<mxfile host="Electron" agent="Mozilla/5.0 (Windows NT 10.0; Win64; x64) AppleWebKit/537.36 (KHTML, like Gecko) draw.io/27.0.9 Chrome/134.0.6998.205 Electron/35.4.0 Safari/537.36" version="27.0.9">
  <diagram name="YoRHa Backend General Design" id="T1ig4GPtiGThXSXJhbaM">
    <mxGraphModel dx="983" dy="613" grid="1" gridSize="10" guides="1" tooltips="1" connect="1" arrows="1" fold="1" page="1" pageScale="1" pageWidth="827" pageHeight="1169" math="0" shadow="0">
      <root>
        <mxCell id="0" />
        <mxCell id="1" parent="0" />
        <mxCell id="c4u2uFY4mNu0DCgcmhLV-1" value="DependencyInjection" style="swimlane;fontStyle=1;align=center;verticalAlign=top;childLayout=stackLayout;horizontal=1;startSize=26;horizontalStack=0;resizeParent=1;resizeParentMax=0;resizeLast=0;collapsible=1;marginBottom=0;whiteSpace=wrap;html=1;" vertex="1" parent="1">
          <mxGeometry x="50" y="550" width="270" height="60" as="geometry" />
        </mxCell>
        <mxCell id="c4u2uFY4mNu0DCgcmhLV-3" value="" style="line;strokeWidth=1;fillColor=none;align=left;verticalAlign=middle;spacingTop=-1;spacingLeft=3;spacingRight=3;rotatable=0;labelPosition=right;points=[];portConstraint=eastwest;strokeColor=inherit;" vertex="1" parent="c4u2uFY4mNu0DCgcmhLV-1">
          <mxGeometry y="26" width="270" height="8" as="geometry" />
        </mxCell>
        <mxCell id="c4u2uFY4mNu0DCgcmhLV-4" value="&lt;u&gt;+ AddBLL(this IServiceCollection services): void&lt;/u&gt;" style="text;strokeColor=none;fillColor=none;align=left;verticalAlign=top;spacingLeft=4;spacingRight=4;overflow=hidden;rotatable=0;points=[[0,0.5],[1,0.5]];portConstraint=eastwest;whiteSpace=wrap;html=1;" vertex="1" parent="c4u2uFY4mNu0DCgcmhLV-1">
          <mxGeometry y="34" width="270" height="26" as="geometry" />
        </mxCell>
        <mxCell id="c4u2uFY4mNu0DCgcmhLV-7" value="YoRHa.API" style="shape=umlFrame;whiteSpace=wrap;html=1;pointerEvents=0;width=80;height=34;" vertex="1" parent="1">
          <mxGeometry x="40" y="20" width="750" height="430" as="geometry" />
        </mxCell>
        <mxCell id="c4u2uFY4mNu0DCgcmhLV-9" value="DependencyInjection" style="swimlane;fontStyle=1;align=center;verticalAlign=top;childLayout=stackLayout;horizontal=1;startSize=26;horizontalStack=0;resizeParent=1;resizeParentMax=0;resizeLast=0;collapsible=1;marginBottom=0;whiteSpace=wrap;html=1;" vertex="1" parent="1">
          <mxGeometry x="50" y="1030" width="270" height="60" as="geometry" />
        </mxCell>
        <mxCell id="c4u2uFY4mNu0DCgcmhLV-10" value="" style="line;strokeWidth=1;fillColor=none;align=left;verticalAlign=middle;spacingTop=-1;spacingLeft=3;spacingRight=3;rotatable=0;labelPosition=right;points=[];portConstraint=eastwest;strokeColor=inherit;" vertex="1" parent="c4u2uFY4mNu0DCgcmhLV-9">
          <mxGeometry y="26" width="270" height="8" as="geometry" />
        </mxCell>
        <mxCell id="c4u2uFY4mNu0DCgcmhLV-11" value="&lt;u&gt;+ AddDAL(this IServiceCollection services): void&lt;/u&gt;" style="text;strokeColor=none;fillColor=none;align=left;verticalAlign=top;spacingLeft=4;spacingRight=4;overflow=hidden;rotatable=0;points=[[0,0.5],[1,0.5]];portConstraint=eastwest;whiteSpace=wrap;html=1;" vertex="1" parent="c4u2uFY4mNu0DCgcmhLV-9">
          <mxGeometry y="34" width="270" height="26" as="geometry" />
        </mxCell>
        <mxCell id="c4u2uFY4mNu0DCgcmhLV-12" value="YoRHa.BLL" style="shape=umlFrame;whiteSpace=wrap;html=1;pointerEvents=0;width=80;height=34;" vertex="1" parent="1">
          <mxGeometry x="40" y="500" width="750" height="430" as="geometry" />
        </mxCell>
        <mxCell id="c4u2uFY4mNu0DCgcmhLV-13" value="YoRHa.DAL" style="shape=umlFrame;whiteSpace=wrap;html=1;pointerEvents=0;width=80;height=34;" vertex="1" parent="1">
          <mxGeometry x="39" y="980" width="750" height="430" as="geometry" />
        </mxCell>
        <mxCell id="c4u2uFY4mNu0DCgcmhLV-14" value="YoRHa.Common" style="shape=umlFrame;whiteSpace=wrap;html=1;pointerEvents=0;width=110;height=30;" vertex="1" parent="1">
          <mxGeometry x="1040" y="500" width="750" height="430" as="geometry" />
        </mxCell>
        <mxCell id="c4u2uFY4mNu0DCgcmhLV-15" value="Program" style="swimlane;fontStyle=1;align=center;verticalAlign=top;childLayout=stackLayout;horizontal=1;startSize=26;horizontalStack=0;resizeParent=1;resizeParentMax=0;resizeLast=0;collapsible=1;marginBottom=0;whiteSpace=wrap;html=1;" vertex="1" parent="1">
          <mxGeometry x="50" y="60" width="270" height="90" as="geometry" />
        </mxCell>
        <mxCell id="c4u2uFY4mNu0DCgcmhLV-16" value="" style="line;strokeWidth=1;fillColor=none;align=left;verticalAlign=middle;spacingTop=-1;spacingLeft=3;spacingRight=3;rotatable=0;labelPosition=right;points=[];portConstraint=eastwest;strokeColor=inherit;" vertex="1" parent="c4u2uFY4mNu0DCgcmhLV-15">
          <mxGeometry y="26" width="270" height="8" as="geometry" />
        </mxCell>
        <mxCell id="c4u2uFY4mNu0DCgcmhLV-17" value="&lt;u&gt;+ Main(string[] args): void&lt;/u&gt;" style="text;strokeColor=none;fillColor=none;align=left;verticalAlign=top;spacingLeft=4;spacingRight=4;overflow=hidden;rotatable=0;points=[[0,0.5],[1,0.5]];portConstraint=eastwest;whiteSpace=wrap;html=1;" vertex="1" parent="c4u2uFY4mNu0DCgcmhLV-15">
          <mxGeometry y="34" width="270" height="26" as="geometry" />
        </mxCell>
        <mxCell id="c4u2uFY4mNu0DCgcmhLV-18" value="&lt;u&gt;- CreateHostBuilder(string[] args): IHostBuilder&lt;/u&gt;" style="text;strokeColor=none;fillColor=none;align=left;verticalAlign=top;spacingLeft=4;spacingRight=4;overflow=hidden;rotatable=0;points=[[0,0.5],[1,0.5]];portConstraint=eastwest;whiteSpace=wrap;html=1;" vertex="1" parent="c4u2uFY4mNu0DCgcmhLV-15">
          <mxGeometry y="60" width="270" height="30" as="geometry" />
        </mxCell>
        <mxCell id="c4u2uFY4mNu0DCgcmhLV-19" value="Startup" style="swimlane;fontStyle=1;align=center;verticalAlign=top;childLayout=stackLayout;horizontal=1;startSize=26;horizontalStack=0;resizeParent=1;resizeParentMax=0;resizeLast=0;collapsible=1;marginBottom=0;whiteSpace=wrap;html=1;" vertex="1" parent="1">
          <mxGeometry x="50" y="155" width="310" height="160" as="geometry" />
        </mxCell>
        <mxCell id="c4u2uFY4mNu0DCgcmhLV-20" value="+ Configuration: IConfiguration" style="text;strokeColor=none;fillColor=none;align=left;verticalAlign=top;spacingLeft=4;spacingRight=4;overflow=hidden;rotatable=0;points=[[0,0.5],[1,0.5]];portConstraint=eastwest;whiteSpace=wrap;html=1;" vertex="1" parent="c4u2uFY4mNu0DCgcmhLV-19">
          <mxGeometry y="26" width="310" height="26" as="geometry" />
        </mxCell>
        <mxCell id="c4u2uFY4mNu0DCgcmhLV-21" value="" style="line;strokeWidth=1;fillColor=none;align=left;verticalAlign=middle;spacingTop=-1;spacingLeft=3;spacingRight=3;rotatable=0;labelPosition=right;points=[];portConstraint=eastwest;strokeColor=inherit;" vertex="1" parent="c4u2uFY4mNu0DCgcmhLV-19">
          <mxGeometry y="52" width="310" height="8" as="geometry" />
        </mxCell>
        <mxCell id="c4u2uFY4mNu0DCgcmhLV-22" value="+ Startup(IConfiguration configuration): Startup" style="text;strokeColor=none;fillColor=none;align=left;verticalAlign=top;spacingLeft=4;spacingRight=4;overflow=hidden;rotatable=0;points=[[0,0.5],[1,0.5]];portConstraint=eastwest;whiteSpace=wrap;html=1;" vertex="1" parent="c4u2uFY4mNu0DCgcmhLV-19">
          <mxGeometry y="60" width="310" height="26" as="geometry" />
        </mxCell>
        <mxCell id="c4u2uFY4mNu0DCgcmhLV-24" value="+ ConfigureServices(IServiceCollection services): void" style="text;strokeColor=none;fillColor=none;align=left;verticalAlign=top;spacingLeft=4;spacingRight=4;overflow=hidden;rotatable=0;points=[[0,0.5],[1,0.5]];portConstraint=eastwest;whiteSpace=wrap;html=1;" vertex="1" parent="c4u2uFY4mNu0DCgcmhLV-19">
          <mxGeometry y="86" width="310" height="26" as="geometry" />
        </mxCell>
        <mxCell id="c4u2uFY4mNu0DCgcmhLV-23" value="+ Configure(IApplicationBuilder app, IWebHostEnvironment env): void" style="text;strokeColor=none;fillColor=none;align=left;verticalAlign=top;spacingLeft=4;spacingRight=4;overflow=hidden;rotatable=0;points=[[0,0.5],[1,0.5]];portConstraint=eastwest;whiteSpace=wrap;html=1;" vertex="1" parent="c4u2uFY4mNu0DCgcmhLV-19">
          <mxGeometry y="112" width="310" height="48" as="geometry" />
        </mxCell>
        <mxCell id="c4u2uFY4mNu0DCgcmhLV-25" value="YoRHa.API.Controllers" style="shape=umlFrame;whiteSpace=wrap;html=1;pointerEvents=0;width=140;height=40;" vertex="1" parent="1">
          <mxGeometry x="390" y="40" width="380" height="390" as="geometry" />
        </mxCell>
      </root>
    </mxGraphModel>
  </diagram>
</mxfile>
